<svg version="1.1" xmlns="http://www.w3.org/2000/svg" xmlns:xlink="http://www.w3.org/1999/xlink" x="0px" y="0px" viewBox="0 0 66 41" enable-background="new 0 0 66 41.2" xml:space="preserve"><path fill="#000000" d="M66,5.9L33,0L0,5.9l0,29.5l33,5.9l33-5.9L66,5.9z M33,36.2l-28-5l0-21.1l28-5l28,5l0,21.1L33,36.2zM19.5,12.1l-4.8,17.2h-5c0,0,3-10.6,3.3-11.4c0.3-1-1.1-0.5-1.1-0.5h-1.6l0.7-2.7c1.4,0,4.4-1.2,5.3-2.5H19.5z M46,20.1c2,0,3.3-0.9,3.8-2.9l0.9-3.2c0.3-1,0.2-1.7-0.1-2.2c-0.4-0.5-1.1-0.7-2.1-0.7c-2,0-3.3,0.9-3.8,2.9l-0.9,3.2c-0.3,1-0.2,1.7,0.1,2.2C44.3,19.8,45,20.1,46,20.1z M46.4,17.6l1.1-4.1c0.2-0.6,0.4-0.6,0.5-0.6c0.1,0,0.1,0,0.1,0.1c0,0,0.1,0.2,0,0.5L47,17.6c-0.2,0.6-0.4,0.6-0.5,0.6c-0.1,0-0.1,0-0.1-0.1C46.4,18.1,46.3,18,46.4,17.6z M55.1,10.8h2.2L45,30.6h-2.2L55.1,10.8z M30.3,12.5c-0.7-0.9-1.9-1.3-3.7-1.3c-1.7,0-5.7,0.5-7,5.4l-2.4,8.6c-0.4,1.6-0.3,2.8,0.3,3.7c0.7,0.9,2,1.4,3.8,1.4c3.6,0,5.9-1.7,6.8-5l2.4-8.6C31.1,14.7,31,13.4,30.3,12.5z M25.9,15.8l-2.7,9.9c-0.2,0.7-0.5,1-0.9,1c-0.1,0-0.2-0.1-0.3-0.1c-0.1-0.2-0.1-0.5,0-0.9l2.7-9.9c0.2-0.7,0.5-1,0.9-1c0.1,0,0.3,0.1,0.3,0.2C26,15,26,15.3,25.9,15.8zM54.1,21.2c-2,0-3.3,0.9-3.8,2.9l-0.9,3.2c-0.3,1-0.2,1.7,0.1,2.2c0.4,0.5,1.1,0.7,2.1,0.7c2,0,3.3-0.9,3.8-2.9l0.9-3.2c0.3-1,0.2-1.7-0.1-2.2C55.9,21.5,55.2,21.2,54.1,21.2z M53.8,23.7l-1.1,4.1c-0.2,0.6-0.4,0.6-0.5,0.6c-0.1,0-0.1,0-0.1-0.1c0,0-0.1-0.2,0-0.5l1.1-4.1c0.2-0.6,0.4-0.6,0.5-0.6c0.1,0,0.1,0,0.1,0.1C53.8,23.2,53.9,23.3,53.8,23.7z M42.5,12.5c-0.7-0.9-1.9-1.3-3.7-1.3c-1.7,0-5.7,0.5-7,5.4l-2.4,8.6c-0.4,1.6-0.3,2.8,0.3,3.7c0.7,0.9,2,1.4,3.8,1.4c3.6,0,5.9-1.7,6.8-5l2.4-8.6C43.3,14.7,43.2,13.4,42.5,12.5z M38.1,15.8l-2.7,9.9c-0.2,0.7-0.5,1-0.9,1c-0.1,0-0.2-0.1-0.3-0.1c-0.1-0.2-0.1-0.5,0-0.9l2.7-9.9c0.2-0.7,0.5-1,0.9-1c0.1,0,0.3,0.1,0.3,0.2C38.2,15,38.2,15.3,38.1,15.8z"></path></svg>
